<svg viewBox="0 0 299 299" preserveAspectRatio="xMidYMid meet" version="1.1" 
    xmlns="http://www.w3.org/2000/svg" 
    xmlns:xlink="http://www.w3.org/1999/xlink">
    <g id="Color" stroke="none" stroke-width="1" fill="none" fill-rule="evenodd">
        <g id="Group" transform="translate(-1.000000, -110.000000)" fill="currentColor">
            <path d="M10.9544452,126.279759 L29.3509501,123.563107 L29.3509501,123.563107 L46.2581618,112.117265 C49.031508,110.239766 52.6754275,110.266975 55.4204276,112.18568 C58.2596435,114.17024 59.8902892,117.466076 59.7453211,120.927089 L53.9619952,259 L53.9619952,259 L55.4204276,300.322816 L90.7874109,254.449029 L90.7874109,244.800971 C86.3016504,245.009307 82.3561823,241.860761 81.5640506,237.440582 L81.398753,236.518204 C80.7237581,232.751661 83.2299529,229.151083 86.9964956,228.476089 C87.5316763,228.38018 88.076286,228.3476 88.6190839,228.379021 L117.586105,230.055825 L117.586105,230.055825 L156.260343,223.91886 C160.20265,223.29328 163.905654,225.98202 164.531234,229.924327 C164.590683,230.298969 164.620546,230.67771 164.620546,231.057039 C164.620546,235.879732 161.00192,239.9348 156.210328,240.481614 L145.478622,241.706311 L145.478622,241.706311 L110.840855,260.820388 L84.0421615,295.589806 L147.666271,374.412621 L166.625891,390.978155 L188.502375,388.61165 L197.435273,385.881068 L205.274347,368.951456 L201.992874,267.737864 L191.783848,256.815534 L191.68169,256.815534 C187.509393,256.815534 184.127078,253.433219 184.127078,249.260922 C184.127078,244.821357 187.149376,240.951835 191.456755,239.876557 L206.003563,236.245146 L206.003563,236.245146 L226.231386,222.533825 C229.00888,220.651116 232.719297,220.939765 235.172209,223.229369 C237.815795,225.696952 239.162453,229.25299 238.816524,232.852691 L235.901425,263.186893 L235.901425,263.186893 L255.954869,233.878641 L270.098555,226.864478 C277.7832,223.053496 287.068307,224.864024 292.758195,231.282943 L295.202025,234.039895 C301.840054,241.528437 301.531823,252.882057 294.497271,259.999414 L287.043499,267.540925 C283.101507,271.529317 276.672661,271.566933 272.684269,267.624942 C272.542312,267.484636 272.404522,267.340175 272.271081,267.191748 C268.119243,262.573643 261.232036,261.645758 256.006059,265.000428 L246.386071,271.175709 C245.275349,271.888706 244.4916,273.01196 244.205746,274.300508 L238.271378,301.050971 L238.271378,301.050971 L235.901425,368.951456 L247.568884,384.788835 L263.42051,389.060035 C267.6207,390.191771 270.539192,394.000736 270.539192,398.350728 C270.539192,402.000283 267.580643,404.958832 263.931088,404.958832 C263.690379,404.958832 263.449849,404.94568 263.210575,404.919435 L222.410926,400.444175 L222.410926,400.444175 L147.666271,409 L110.840855,388.61165 L60.7072447,314.521845 L57.9726841,318.162621 L57.9726841,378.599515 L64.3533254,387.701456 L71.3080648,388.109963 C76.104101,388.391673 79.8491686,392.363173 79.8491686,397.167476 C79.8491686,401.316393 76.4858068,404.679755 72.3368898,404.679755 C72.0119743,404.679755 71.6874012,404.658675 71.3652151,404.616649 L39.3776722,400.444175 L39.3776722,400.444175 L10.9565206,404.621913 C6.71954601,405.244723 2.71123146,402.519749 1.73188836,398.350728 C0.741979981,394.136732 3.0398834,389.844027 7.09552658,388.330936 L16.5896675,384.788835 L16.5896675,384.788835 L23.1526128,368.951456 L23.1526128,159.06068 L11.6674584,143.40534 C8.26712771,142.748169 5.62962526,140.053152 5.04594696,136.639438 L4.73990499,134.849515 C4.05095947,130.820132 6.75891838,126.995172 10.7883005,126.306227 C10.84358,126.296775 10.8989652,126.287952 10.9544452,126.279759 Z" id="Path-8"></path>
        </g>
    </g>
</svg>