<?xml version="1.0"?>
<svg xmlns="http://www.w3.org/2000/svg" viewBox="0 0 512 512">
    <g id="Signess">
        <path fill="currentColor" d="M464,448H280V416h96a8,8,0,0,0,6.656-3.562l32-48a8,8,0,0,0,0-8.876l-32-48A8,8,0,0,0,376,304H280V288h64a8,8,0,0,0,8-8V184a8,8,0,0,0-8-8H280V160h80a8,8,0,0,0,6.656-3.562l32-48a8,8,0,0,0,0-8.876l-32-48A8,8,0,0,0,360,48H200a8,8,0,0,0-8,8v96a8,8,0,0,0,8,8h32v16H72a8,8,0,0,0-6.656,3.562l-32,48a8,8,0,0,0,0,8.876l32,48A8,8,0,0,0,72,288H232v16H136a8,8,0,0,0-8,8v96a8,8,0,0,0,8,8h96v32H16a8,8,0,0,0,0,16H464a8,8,0,0,0,0-16ZM208,64H355.719l26.666,40-26.666,40H208Zm40,96h16v16H248ZM49.615,232l26.666-40H336v80H76.281ZM248,288h16v16H248ZM144,320H371.719l26.666,40-26.666,40H144ZM248,448V416h16v32Z"/>
        <path fill="currentColor" d="M496,448h-8a8,8,0,0,0,0,16h8a8,8,0,0,0,0-16Z"/>
        <path fill="currentColor" d="M272,264h48a8,8,0,0,0,8-8V208a8,8,0,0,0-8-8H272a8,8,0,0,0-8,8v48A8,8,0,0,0,272,264Zm8-48h32v32H280Z"/>
        <path fill="currentColor" d="M208,328H160a8,8,0,0,0-8,8v48a8,8,0,0,0,8,8h48a8,8,0,0,0,8-8V336A8,8,0,0,0,208,328Zm-8,48H168V344h32Z"/>
    </g>
</svg>
