<svg height="496pt" viewBox="-28 0 496 496" width="496pt" 
    xmlns="http://www.w3.org/2000/svg">
    <g fill="#231f20">
        <path fill="currentColor" d="m438.511719 347.351562-40-56c-1.5-2.101562-3.925781-3.351562-6.511719-3.351562h-160v-16h24c4.417969 0 8-3.582031 8-8v-112c0-4.417969-3.582031-8-8-8h-24v-16h104c2.585938 0 5.011719-1.25 6.511719-3.351562l40-56c1.984375-2.78125 1.984375-6.515626 0-9.296876l-40-56c-1.5-2.101562-3.925781-3.351562-6.511719-3.351562h-256c-4.417969 0-8 3.582031-8 8v112c0 4.417969 3.582031 8 8 8h88v16h-120c-2.582031 0-5.007812 1.25-6.511719 3.351562l-40 56c-1.984375 2.78125-1.984375 6.515626 0 9.296876l40 56c1.503907 2.101562 3.929688 3.351562 6.511719 3.351562h120v16h-64c-4.417969 0-8 3.582031-8 8v112c0 4.417969 3.582031 8 8 8h64v72c0 4.417969 3.582031 8 8 8h48c4.417969 0 8-3.582031 8-8v-72h160c2.585938 0 5.011719-1.25 6.511719-3.351562l40-56c1.984375-2.78125 1.984375-6.515626 0-9.296876zm-350.511719-331.351562h243.878906l34.289063 48-34.289063 48h-243.878906zm96 112h32v16h-32zm-166.167969 80 34.289063-48h195.878906v96h-195.878906zm166.167969 64h32v16h-32zm32 208h-32v-64h32zm171.878906-80h-275.878906v-96h275.878906l34.289063 48zm0 0"/>
        <path fill="currentColor" d="m200 232c0-4.417969-3.582031-8-8-8h-88c-4.417969 0-8 3.582031-8 8s3.582031 8 8 8h88c4.417969 0 8-3.582031 8-8zm0 0"/>
        <path fill="currentColor" d="m216 240h8c4.417969 0 8-3.582031 8-8s-3.582031-8-8-8h-8c-4.417969 0-8 3.582031-8 8s3.582031 8 8 8zm0 0"/>
        <path fill="currentColor" d="m216 368h-88c-4.417969 0-8 3.582031-8 8s3.582031 8 8 8h88c4.417969 0 8-3.582031 8-8s-3.582031-8-8-8zm0 0"/>
        <path fill="currentColor" d="m248 368h-8c-4.417969 0-8 3.582031-8 8s3.582031 8 8 8h8c4.417969 0 8-3.582031 8-8s-3.582031-8-8-8zm0 0"/>
        <path fill="currentColor" d="m224 72h88c4.417969 0 8-3.582031 8-8s-3.582031-8-8-8h-88c-4.417969 0-8 3.582031-8 8s3.582031 8 8 8zm0 0"/>
        <path fill="currentColor" d="m336 72h8c4.417969 0 8-3.582031 8-8s-3.582031-8-8-8h-8c-4.417969 0-8 3.582031-8 8s3.582031 8 8 8zm0 0"/>
    </g>
</svg>