<?xml version="1.0" standalone="no"?>
<!DOCTYPE svg PUBLIC "-//W3C//DTD SVG 20010904//EN"
 "http://www.w3.org/TR/2001/REC-SVG-20010904/DTD/svg10.dtd">
<svg version="1.0" xmlns="http://www.w3.org/2000/svg"
 width="700.000000pt" height="700.000000pt" viewBox="0 0 700.000000 700.000000"
 preserveAspectRatio="xMidYMid meet">
<metadata>
Created by potrace 1.11, written by Peter Selinger 2001-2013
</metadata>
<g transform="translate(0.000000,700.000000) scale(0.100000,-0.100000)"
fill="#000000" stroke="none">
<path d="M1059 6947 c-30 -18 -131 -85 -225 -149 -174 -118 -175 -118 -299
-133 -22 -3 -69 -10 -105 -16 -36 -6 -74 -12 -85 -13 -106 -14 -135 -21 -167
-37 -42 -22 -72 -59 -85 -109 -27 -102 33 -231 122 -260 25 -8 49 -31 87 -83
29 -40 89 -122 134 -183 l82 -111 0 -2459 0 -2459 -77 -184 -76 -184 -123 -46
c-175 -66 -222 -110 -228 -216 -5 -95 68 -186 159 -201 21 -3 69 -1 105 5 37
6 86 13 109 16 23 3 55 8 70 10 15 2 57 8 93 14 36 5 85 13 110 16 25 3 56 8
70 10 101 17 175 24 202 20 35 -4 110 -14 168 -21 19 -2 49 -6 65 -8 34 -5
182 -24 235 -31 19 -2 54 -7 77 -10 88 -12 109 -15 157 -20 111 -12 199 52
211 153 4 39 -14 105 -41 143 -44 64 -98 85 -249 94 -58 3 -73 7 -87 27 -10
13 -21 28 -26 33 -4 6 -30 43 -57 84 l-50 73 -1 707 0 706 25 35 c14 19 28 39
32 43 3 5 30 -27 59 -70 29 -43 90 -132 135 -198 45 -66 135 -199 200 -295 66
-96 138 -203 162 -238 24 -35 43 -67 43 -72 0 -4 3 -10 8 -12 4 -2 39 -50 78
-108 528 -783 487 -727 564 -772 36 -21 72 -41 80 -45 8 -3 116 -62 240 -131
124 -68 250 -138 280 -155 30 -17 71 -39 90 -50 89 -50 110 -59 137 -53 15 3
55 8 88 11 33 3 76 7 95 10 19 3 55 7 80 9 25 3 63 7 85 10 22 2 69 8 105 11
36 4 73 9 82 10 9 2 45 6 80 9 35 4 79 8 98 11 19 2 55 7 80 10 25 2 63 7 85
9 22 3 63 8 90 11 28 3 66 7 85 10 19 2 60 7 90 10 30 3 89 10 130 15 41 5 98
11 125 14 53 6 95 11 210 25 67 8 179 7 258 -4 70 -9 169 -20 267 -30 45 -4
154 -16 180 -20 14 -2 54 -7 90 -10 73 -8 98 -10 190 -21 130 -15 178 -3 222
58 34 49 32 137 -5 201 -34 57 -81 90 -162 112 -33 9 -109 29 -170 46 -60 16
-122 32 -137 35 -34 8 -30 4 -182 209 l-126 170 5 165 c3 91 8 219 10 285 3
66 7 199 10 295 3 96 8 218 10 270 2 52 7 187 10 300 9 267 10 283 29 360 14
61 18 77 31 148 3 15 15 65 26 112 25 106 49 216 56 255 10 60 33 84 150 161
182 118 204 128 292 128 90 1 147 -23 213 -86 64 -62 112 -82 188 -83 89 0
128 25 272 173 151 155 188 226 194 364 4 119 -26 210 -102 305 -147 184 -306
252 -493 212 -53 -11 -431 -192 -443 -212 -26 -43 -412 -606 -425 -622 -5 -6
-15 -19 -21 -30 -13 -20 -12 8 3 145 2 19 7 64 10 100 3 36 7 81 10 100 2 19
7 62 9 95 3 33 9 92 13 130 13 127 9 206 -14 257 -41 90 -115 138 -202 130
-23 -2 -108 -54 -290 -176 -282 -191 -231 -167 -511 -235 -114 -28 -154 -47
-195 -92 -69 -76 -74 -200 -12 -267 27 -29 65 -49 103 -56 42 -7 270 -248 271
-285 0 -14 3 -129 8 -256 4 -126 8 -270 10 -320 1 -49 6 -184 10 -300 12 -355
13 -403 20 -625 4 -118 8 -253 10 -300 2 -47 6 -188 10 -315 l7 -230 -91 -195
c-55 -118 -97 -198 -108 -202 -36 -14 -188 -60 -208 -63 -11 -2 -54 -6 -95
-10 -73 -6 -115 -11 -175 -20 -16 -2 -66 -7 -110 -10 -44 -4 -87 -8 -97 -11
-16 -5 -67 38 -360 295 -57 50 -144 141 -193 202 -50 61 -106 130 -125 154
-19 23 -42 51 -50 61 -73 91 -96 120 -100 124 -3 3 -68 84 -145 180 -77 96
-144 180 -150 186 -5 6 -22 26 -37 45 -31 40 -254 316 -563 699 -121 149 -221
277 -223 283 -1 9 123 178 215 292 5 6 47 60 93 120 47 61 90 117 97 125 7 8
58 74 113 147 l102 132 241 133 c132 73 247 134 254 136 7 2 13 8 13 13 0 5 4
9 10 9 5 0 74 35 152 79 124 68 152 79 208 85 229 23 270 35 324 98 98 114 58
277 -75 307 -20 5 -71 2 -124 -6 -50 -7 -106 -16 -125 -18 -19 -3 -46 -7 -60
-10 -14 -2 -38 -7 -55 -9 -16 -3 -75 -13 -130 -21 -55 -9 -116 -18 -135 -21
-19 -2 -46 -6 -60 -9 -14 -2 -40 -7 -57 -10 -67 -10 -89 -14 -133 -22 -55 -9
-187 -9 -335 0 -293 18 -346 21 -421 21 -73 1 -84 -2 -117 -27 -132 -101 -55
-324 120 -350 12 -2 26 -6 30 -10 4 -4 6 -55 5 -113 l-1 -106 -58 -77 c-32
-42 -62 -81 -68 -87 -12 -14 -253 -326 -569 -739 -47 -60 -96 -123 -109 -140
l-24 -29 -2 94 c-2 52 -4 129 -6 170 -25 571 -25 755 0 1300 2 41 6 145 10
230 3 85 8 202 10 260 3 58 7 159 10 225 3 66 7 176 10 245 7 154 12 291 20
480 3 80 8 186 10 235 2 50 7 160 10 245 4 85 8 191 10 235 23 492 23 522 0
580 -17 46 -79 109 -121 125 -53 20 -117 12 -175 -23z"/>
</g>
</svg>
